<?xml version="1.0" encoding="UTF-8" standalone="no"?>
<!-- Created with Inkscape (http://www.inkscape.org/) -->

<svg
   width="512"
   height="512"
   viewBox="0 0 135.46666 135.46667"
   version="1.1"
   id="svg5"
   inkscape:version="1.2.2 (b0a8486541, 2022-12-01)"
   sodipodi:docname="app_icon.svg"
   inkscape:export-filename="app_icon.png"
   inkscape:export-xdpi="96"
   inkscape:export-ydpi="96"
   xmlns:inkscape="http://www.inkscape.org/namespaces/inkscape"
   xmlns:sodipodi="http://sodipodi.sourceforge.net/DTD/sodipodi-0.dtd"
   xmlns="http://www.w3.org/2000/svg"
   xmlns:svg="http://www.w3.org/2000/svg"
   xmlns:rdf="http://www.w3.org/1999/02/22-rdf-syntax-ns#"
   xmlns:cc="http://creativecommons.org/ns#">
  <sodipodi:namedview
     id="namedview7"
     pagecolor="#ffffff"
     bordercolor="#000000"
     borderopacity="0.25"
     inkscape:showpageshadow="2"
     inkscape:pageopacity="0.0"
     inkscape:pagecheckerboard="0"
     inkscape:deskcolor="#d1d1d1"
     inkscape:document-units="px"
     showgrid="false"
     inkscape:zoom="2.80696"
     inkscape:cx="252.05205"
     inkscape:cy="268.08363"
     inkscape:window-width="2560"
     inkscape:window-height="1376"
     inkscape:window-x="0"
     inkscape:window-y="0"
     inkscape:window-maximized="1"
     inkscape:current-layer="layer1"
     showguides="true"
     inkscape:lockguides="false">
    <sodipodi:guide
       position="16.933333,135.46666"
       orientation="-1,0"
       id="guide2287"
       inkscape:locked="false"
       inkscape:label=""
       inkscape:color="rgb(0,134,229)" />
    <sodipodi:guide
       position="118.53333,135.46666"
       orientation="-1,0"
       id="guide2289"
       inkscape:locked="false"
       inkscape:label=""
       inkscape:color="rgb(0,134,229)" />
    <sodipodi:guide
       position="0,118.53333"
       orientation="0,1"
       id="guide2291"
       inkscape:locked="false"
       inkscape:label=""
       inkscape:color="rgb(0,134,229)" />
    <sodipodi:guide
       position="0,16.933333"
       orientation="0,1"
       id="guide2293"
       inkscape:locked="false"
       inkscape:label=""
       inkscape:color="rgb(0,134,229)" />
  </sodipodi:namedview>
  <defs
     id="defs2" />
  <g
     inkscape:label="Layer 1"
     inkscape:groupmode="layer"
     id="layer1">
    <path
       id="path111"
       style="stroke-width:0.215579"
       d="m 33.828885,72.181294 c -7.573728,8.951185 -2.961662,18.873956 5.989514,26.447712 8.951164,7.574064 18.85214,9.930884 26.426021,0.979553 6.361344,-7.518714 2.961153,-13.036897 -2.897268,-20.953753 0,0 3.530348,0.256461 6.277561,-2.600626 6.920934,-7.197733 10.61705,-17.366638 10.61705,-17.366638 0,0 2.214968,4.068112 5.625941,4.760198 1.501883,0.304732 3.233589,-0.887745 2.765794,-3.268813 -0.473567,-2.410447 -5.625941,-4.760198 -5.625941,-4.760198 l 2.490409,-2.943358 c 0,0 5.774697,7.302299 8.002789,6.771287 2.586252,-0.61637 2.458197,-1.102858 2.773477,-3.277893 0.424827,-2.930775 -8.002787,-6.771277 -8.002787,-6.771277 l 1.950001,-2.304657 c 0,0 7.817501,9.564599 10.315344,8.72797 2.3679,-0.793107 2.34228,-0.912566 2.77347,-3.277893 0.32828,-1.800836 -10.315347,-8.727967 -10.315347,-8.727967 l 2.077177,-2.454963 c 0,0 4.353409,6.94406 7.60278,6.432818 2.94635,-0.463566 2.77347,-3.277891 2.77347,-3.277891 -0.36075,-3.417241 -7.602771,-6.432811 -7.602771,-6.432811 l 1.027406,-1.214271 c 0,0 -1.688518,-3.128815 -2.834754,-5.703597 -1.703437,-3.826421 -4.104281,-4.652771 -4.941204,-0.875754 -1.509053,6.810322 0.611902,18.45587 -28.321343,34.829645 -5.915664,3.347766 -7.284247,7.251621 -7.284247,7.251621 -8.71346,-4.200767 -15.409338,-7.368706 -21.662542,0.01156 z m 4.700337,2.81566 c 3.954245,-9.433702 18.178557,3.17979 18.178557,3.17979 0,0 14.525336,11.299392 7.743892,18.130465 -3.507152,-0.248486 -1.266742,-0.618387 -3.155717,2.624017 C 56.850967,106.561 46.866682,98.930551 40.560669,93.594595 34.240051,88.246556 30.863493,79.629688 36.21913,78.272109 c 2.320315,0.409358 3.744288,-1.618473 2.310092,-3.275155 z"
       sodipodi:nodetypes="ccccscssccssccssccssccsssccccccsccc" />
  </g>
  <metadata
     id="metadata2315">
    <rdf:RDF>
      <cc:Work
         rdf:about="">
        <cc:license
           rdf:resource="http://creativecommons.org/publicdomain/zero/1.0/" />
      </cc:Work>
      <cc:License
         rdf:about="http://creativecommons.org/publicdomain/zero/1.0/">
        <cc:permits
           rdf:resource="http://creativecommons.org/ns#Reproduction" />
        <cc:permits
           rdf:resource="http://creativecommons.org/ns#Distribution" />
        <cc:permits
           rdf:resource="http://creativecommons.org/ns#DerivativeWorks" />
      </cc:License>
    </rdf:RDF>
  </metadata>
</svg>
